<?xml version="1.0" encoding="utf-8"?>
<!-- Generator: Adobe Illustrator 17.0.0, SVG Export Plug-In . SVG Version: 6.00 Build 0)  -->
<!DOCTYPE svg PUBLIC "-//W3C//DTD SVG 1.1//EN" "http://www.w3.org/Graphics/SVG/1.1/DTD/svg11.dtd">
<svg version="1.1" id="Слой_1" xmlns="http://www.w3.org/2000/svg" xmlns:xlink="http://www.w3.org/1999/xlink" x="0px" y="0px"
	 width="250px" height="180px" viewBox="0 0 250 180" enable-background="new 0 0 250 180" xml:space="preserve">
<rect x="-32.5" fill="#DA0000" width="315" height="180"/>
<rect x="-32.5" fill="#FFFFFF" width="315" height="120"/>
<rect x="-32.5" fill="#239F40" width="315" height="60"/>
<path id="_x34_" fill="#DA0000" d="M140.571,69.595c0,0,19.347,15.181,5.126,36.997C159.091,98.38,160.248,75.795,140.571,69.595z"
	/>
<path id="_x33_" fill="#DA0000" d="M129.679,67.438c-3.08,3.484-8.371,0.021-6.552-3.774c3.183,5.724,6.552,1.099,6.552,1.099
	s3.369,4.624,6.552-1.099C138.05,67.459,132.759,70.923,129.679,67.438L129.679,67.438z"/>
<path id="_x32__1_" fill="#DA0000" d="M129.679,115.723l-2.211-2.904c0,0-5.209,1.742-12.071-0.664c5.622,0,8.764-0.996,9.921-1.576
	c0,0-12.733-6.885-12.485-20.904c0.744-14.185,8.268-18.499,8.268-18.499s-13.394,19.577,6.284,35.939l-0.868-20.241V72.005
	c1.116-0.27,3.162-2.634,3.162-2.634s2.046,2.364,3.162,2.634v14.869l-0.868,20.241c19.676-16.363,6.283-35.94,6.283-35.94
	s7.524,4.314,8.268,18.499c0.248,14.019-12.485,20.904-12.485,20.904c1.157,0.581,4.299,1.576,9.921,1.576
	c-6.862,2.406-12.071,0.664-12.071,0.664l-2.211,2.903L129.679,115.723z"/>
<path id="_x31__1_" fill="#DA0000" d="M118.786,69.595c0,0-19.347,15.181-5.126,36.997C100.267,98.38,99.108,75.795,118.786,69.595z
	"/>
</svg>
