<?xml version="1.0" encoding="utf-8"?>
<!-- Generator: Adobe Illustrator 17.0.0, SVG Export Plug-In . SVG Version: 6.00 Build 0)  -->
<!DOCTYPE svg PUBLIC "-//W3C//DTD SVG 1.1//EN" "http://www.w3.org/Graphics/SVG/1.1/DTD/svg11.dtd">
<svg version="1.1" id="Слой_1" xmlns="http://www.w3.org/2000/svg" xmlns:xlink="http://www.w3.org/1999/xlink" x="0px" y="0px"
	 width="628.866px" height="450.486px" viewBox="0 0 628.866 450.486" enable-background="new 0 0 628.866 450.486"
	 xml:space="preserve">
<circle fill="none" stroke="#02BA96" stroke-width="9" stroke-miterlimit="10" cx="225.857" cy="225.066" r="220.122"/>
<g>
	<path fill="#02BA96" d="M79.545,190.311v80.994h-10.4v-80.994H39.504v-10.01h69.812v10.01L79.545,190.311L79.545,190.311z"/>
	<path fill="#02BA96" d="M165.086,242.314c-1.95,0.13-4.03,0.26-6.11,0.26h-24.181v28.731h-10.4v-91.004h34.581
		c22.751,0,35.881,11.18,35.881,30.551c0,15.081-7.28,25.221-20.411,29.511l21.321,30.941h-11.831L165.086,242.314z
		 M158.975,232.564c16.511,0,25.871-7.28,25.871-21.452c0-13.78-9.36-20.801-25.871-20.801h-24.181v42.252L158.975,232.564
		L158.975,232.564z"/>
	<path fill="#02BA96" d="M305.096,225.803c0,25.611-21.061,46.022-47.582,46.022c-26.651,0-47.712-20.411-47.712-46.022
		c0-25.741,21.061-45.762,47.712-45.762C284.035,180.041,305.096,200.191,305.096,225.803z M220.333,225.803
		c0,20.021,16.901,36.012,37.182,36.012s36.921-15.991,36.921-36.012s-16.641-35.881-36.921-35.881S220.333,205.782,220.333,225.803
		z"/>
	<path fill="#02BA96" d="M389.074,271.305l-54.603-73.063v73.063h-10.4v-91.004h10.791l54.603,73.193v-73.193h10.271v91.004H389.074
		z"/>
</g>
<g>
	<path fill="#02BA96" d="M526.137,248.003h-43.003c1.4,10.301,8.9,16.802,19.102,16.802c6.5,0,12.201-2.301,16.301-6.601l4.301,4.6
		c-5.001,5.601-12.401,8.801-21.201,8.801c-15.501,0-26.202-10.9-26.202-26.602s10.801-26.602,26.102-26.602
		C518.536,218.301,526.937,230.103,526.137,248.003z M519.137,241.603c-0.5-10.101-7.301-16.501-17.602-16.501
		c-10.001,0-17.201,6.501-18.401,16.501H519.137z"/>
	<path fill="#02BA96" d="M567.636,218.601h8.601l-17.602,25.602l18.901,27.102h-9.101l-15.001-21.501l-15.501,21.501h-8.8
		l19.201-27.102l-17.901-25.602h9l14.001,20.001L567.636,218.601z"/>
</g>
<g>
	<path fill="#D9D8D8" d="M462.667,354.945c0,3-2.1,5.2-4.8,5.2c-2.801,0-4.9-2.2-4.9-5.2s2.1-5.2,4.9-5.2
		C460.568,349.745,462.667,351.945,462.667,354.945z"/>
	<path fill="#D9D8D8" d="M525.469,326.844v32.502h-7.8v-30.401c0-9.301-5.601-14.802-14.901-14.802
		c-10.4,0.101-16.801,6.9-17.701,16.901v28.302h-7.8v-52.703h7.8v11.601c3.7-8,10.801-11.801,20.401-11.9
		C518.068,306.343,525.469,314.143,525.469,326.844z"/>
	<path fill="#D9D8D8" d="M588.268,336.044h-43.003c1.4,10.301,8.9,16.802,19.102,16.802c6.5,0,12.201-2.301,16.301-6.601l4.301,4.6
		c-5.001,5.601-12.401,8.801-21.201,8.801c-15.501,0-26.202-10.9-26.202-26.602c0-15.702,10.801-26.602,26.102-26.602
		C580.667,306.343,589.068,318.144,588.268,336.044z M581.268,329.644c-0.5-10.101-7.301-16.501-17.602-16.501
		c-10.001,0-17.201,6.501-18.401,16.501H581.268z"/>
	<path fill="#D9D8D8" d="M628.866,355.745c-3.7,2.501-7.7,3.9-11.9,4.001c-7.701,0-13.401-4.601-13.401-15.001v-30.103h-7.601v-6.3
		h7.601v-13.901h7.701v13.901l16.7-0.101v6.4h-16.7v28.702c0,6.4,2.5,8.801,7,8.801c2.7,0,5.5-0.9,8.4-2.7L628.866,355.745z"/>
</g>
</svg>
