<?xml version="1.0" encoding="utf-8"?>
<!-- Generator: Adobe Illustrator 17.0.0, SVG Export Plug-In . SVG Version: 6.00 Build 0)  -->
<!DOCTYPE svg PUBLIC "-//W3C//DTD SVG 1.1//EN" "http://www.w3.org/Graphics/SVG/1.1/DTD/svg11.dtd">
<svg version="1.1" id="Слой_1" xmlns="http://www.w3.org/2000/svg" xmlns:xlink="http://www.w3.org/1999/xlink" x="0px" y="0px"
	 width="250px" height="180px" viewBox="0 0 250 180" enable-background="new 0 0 250 180" xml:space="preserve">
<rect y="0.126" fill="#F0F0F0" width="251.648" height="179.749"/>
<rect y="0.126" fill="#1A3794" width="358.859" height="179.434"/>
<rect y="89.838" fill="#CE1526" width="358.859" height="89.713"/>
<path fill="#FFFFFF" d="M155.393,89.838L0,179.56V0.126"/>
<path fill="#FAD115" d="M8.969,15.665l5.401,4.664l6.255-3.442l-2.768,6.579l5.204,4.88l-7.109-0.593l-3.038,6.462l-1.627-6.956
	l-7.082-0.89l6.111-3.694L8.969,15.665z"/>
<path fill="#FAD115" d="M130.56,80.356l0.144,7.136l6.741,2.346l-6.741,2.346l-0.144,7.136l-4.314-5.689l-6.83,2.067l4.08-5.86
	l-4.08-5.86l6.83,2.067L130.56,80.356z"/>
<path fill="#FAD115" d="M12.915,145.47l3.038,6.462l7.109-0.602l-5.204,4.88l2.768,6.579l-6.255-3.442l-5.401,4.664l1.339-7.01
	l-6.111-3.694l7.082-0.89L12.915,145.47z"/>
<path fill="#FAD115" d="M55.821,51.965l-2.328,2.328l1.159,17.642c-0.395,0.027-0.782,0.063-1.168,0.117l-2.121-16.105l-1.905,1.905
	l2.858,14.389c-2.346,0.467-4.539,1.393-6.462,2.678l-8.152-12.196h-2.687l9.886,12.888c-0.315,0.234-0.611,0.485-0.908,0.746
	L32.328,63.056h-3.289v3.298L42.34,78.02c-0.261,0.288-0.512,0.593-0.746,0.899l-12.888-9.886v2.687l12.205,8.152
	c-1.294,1.932-2.22,4.116-2.687,6.471l-14.389-2.867l-1.905,1.905l16.105,2.121c-0.054,0.386-0.09,0.773-0.117,1.168L20.276,87.51
	l-2.337,2.328l2.328,2.328l17.642-1.159c0.027,0.395,0.063,0.782,0.117,1.168l-16.096,2.13l1.905,1.905l14.389-2.858
	c0.467,2.355,1.393,4.539,2.678,6.471l-12.196,8.152v2.687l12.888-9.886c0.243,0.315,0.485,0.611,0.746,0.908l-13.301,11.666v3.298
	h3.298l11.666-13.301c0.297,0.261,0.593,0.503,0.908,0.746l-9.895,12.87h2.687l8.152-12.205c1.923,1.294,4.107,2.22,6.462,2.687
	l-2.858,14.389l1.905,1.905l2.121-16.105c0.386,0.054,0.773,0.09,1.168,0.117l-1.159,17.642l2.328,2.328l2.328-2.328l-1.159-17.642
	c0.395-0.027,0.782-0.063,1.168-0.117l2.121,16.105l1.905-1.905l-2.858-14.389c2.355-0.467,4.539-1.393,6.471-2.678l8.143,12.196
	h2.687l-9.886-12.888c0.315-0.243,0.611-0.485,0.908-0.746l11.666,13.301h3.298v-3.298l-13.301-11.666
	c0.261-0.297,0.503-0.593,0.746-0.908l12.888,9.886v-2.687L70.74,99.805c1.285-1.923,2.22-4.107,2.678-6.462l14.389,2.858
	l1.905-1.905l-16.105-2.121c0.054-0.386,0.09-0.773,0.117-1.168l17.642,1.159l2.328-2.328l-2.328-2.328L73.724,88.67
	c-0.027-0.395-0.063-0.782-0.117-1.168l16.105-2.121l-1.896-1.905l-14.389,2.867c-0.467-2.355-1.393-4.539-2.678-6.471l12.196-8.152
	v-2.687l-12.888,9.886c-0.243-0.315-0.485-0.611-0.746-0.908l13.301-11.666v-3.289h-3.298L67.648,76.357
	c-0.288-0.261-0.593-0.512-0.908-0.746l9.886-12.888H73.94l-8.152,12.205c-1.923-1.294-4.107-2.22-6.462-2.687l2.858-14.389
	l-1.896-1.905l-2.121,16.105c-0.386-0.054-0.773-0.09-1.168-0.117l1.15-17.642L55.821,51.965z"/>
</svg>
